<?xml version="1.0" encoding="UTF-8"?>
<svg id="Layer_1" data-name="Layer 1" xmlns="http://www.w3.org/2000/svg" viewBox="0 0 236.12 75.19">
  <defs>
    <style>
      .cls-1 {
        fill: #f6ead6;
      }

      .cls-2 {
        fill: #db6b1e;
      }
    </style>
  </defs>
  <g>
    <path class="cls-2" d="m236.12,8.26c-.98.95-1.99,1.73-4.03,1.72-1.46,0-1.76.74-.9,1.54.4.38.74.8,1.07,1.21.98,1.24,1.54,1.55,3.26,1.81-.11,1.56-.06,3.12-.38,4.64-.28,1.32-.98,2.61-1.51,3.91-.06.16-.29.31-.29.46,0,1.22-.68,2.16-2.53,2.66-.88-.62-1.41-.32-1.71.46-.15.39-.34.78-.48,1.18-.25.69-.57,1.41,1.13,1.42.18,0,.52.09.52.13-.07,1.39,2.27,1.44,2.92,2.4.31.46.49.96.65,1.27-.82.29-1.3.49-1.82.63-.76.21-1.57.35-2.31.59-.38.12-.62.42-.97.6-.69.35-1.36.77-2.14.93-.29.06-.89-.49-1.33-.77-.94-.62-1.85-1.27-2.82-1.87-.13-.08-.61-.04-.79.06-1.54.86-3.25,1.34-5.28,1.5-1.27.1-2.48.61-3.7.96-1.58.45-3.13.71-4.93.62-1.9-.09-3.85.23-5.78.35-.6.04-1.22,0-1.82.04-.93.05-1.57-.13-1.75-.82-.06-.23-.26-.44-.41-.66-.91-1.33-1.82-1.49-3.64-.63-.44.21-.81.48-1.24.7-1.96.98-5.43.75-7.53-.42-.63-.35-1.51-.48-2.26-.74-.69-.25-1.53-.44-1.99-.83-1.25-1.03-2.32-2.17-3.53-3.23-.21-.18-.81-.15-1.23-.23-.59-.11-1.18-.22-1.78-.49-.78.42-1.09,1.56-2.73,1.12-.16.55-.29.98-.4,1.32.55.53,1.17,1.02,1.6,1.58,1.07,1.41,2.52,2.54,4.49,3.44.63.28.74,1.04,1.21,1.53.93.96,1.93,1.89,2.91,2.83.18.04.37.07.56.11.35.21.69.43,1.07.62,1.07.52,2.06.71,3.34.1.65-.31,1.76-.23,2.67-.26,1.33-.04,2.06-.53,2.68-1.27.91-1.08,1.99-2.1,3.2-3.35.47.52.88.81,1.02,1.16.71,1.71,2.33,2.65,4.89,2.6,1.56-.03,2.83.15,3.84,1.04.46.41,1.22.66,2.17,1.16-.89,1.32-1.87,2.77-2.86,4.24-1.67-.03-2.14,1.08-1.34,3.33-.48.14-1.05.22-1.46.44-.57.3-1.36.68-1.43,1.08-.17.86-.72,1.26-1.92,1.45-1.04.17-1.75.53-1.74,1.43,0,.3-.88.7-1.47.91-2.03.7-4.13,1.32-6.17,2.01-.31.1-.67.46-.63.66.24,1.15-1.05,1.53-2.15,1.94-1.37.51-2.87.85-4.24,1.36-1.08.4-2.04.94-3.04,1.43-.32.16-.58.41-.93.5-2.69.68-5.41,1.32-8.1,1.99-.41.1-.74.34-1.14.48-1.31.46-2.59,1-3.97,1.32-1.25.29-2.38-.36-2.66-1.2-.4-1.18-.92-2.34-1.39-3.51-.13-.32-.43-.67-.35-.97.52-2.12-1.2-3.47-3.33-4.78-.85-.52-1.38-1.33-1.88-2.06-.85-1.26-1.98-2.27-3.97-2.8-1.49-.4-2.88-2.32-2.72-3.61.19-1.57-1.61-3.74-3.75-4.44-1.04-.34-1.46-.85-1.73-1.62-.26-.76-1.01-1.45-1.64-2.13-1.21-1.29-2.45-2.58-3.77-3.82-.41-.38-1.11-.63-1.74-.97.24-.86.51-1.82.78-2.78-.18-.03-.36-.06-.54-.09-.31.61-.64,1.22-.92,1.83-.29.64-.53,1.28-.84,2.04-2.74-1.14-3.21-3.1-4.67-4.71-1.12.98.31,1.7.45,2.51.07.4.69.74.98,1.13.75,1.01,1.43,2.04,2.18,3.05,1.4,1.88,2.85,3.75,4.25,5.63.21.28.3.62.33.94.09,1.01.26,1.87,1.83,2.49,2.38.93,3.04,2.59,3.21,4.34.07.75.24,1.49.26,2.24.04,1.41,1.84,1.82,3.1,2.54.23.13.5.22,1.09.47-.77.38-1.42.67-2.03.99-1.35.7-2.89,1.02-3.32,2.57-.46,1.67-.95,3.33-1.29,5.02-.19.97-.7,1.89-2.16,2.66-1.39.74-1.96,2.19-3,3.45-.87-.12-1.44.24-1.43,1.18,0,.45-.42.89-.65,1.32-.29-.49-.37-1.19-.89-1.4-1.98-.8-2.06-1.96-1.77-3.26.04-.16.07-.33.16-.71-1.24.19-2.29.35-3.49.54.13.17.3.32.35.48.21.7.67,1.39-.63,1.96-.82.36-1.35,1-2.06,1.48-.8.54-1.69.58-2.57.09-1.19-.66-2.01-.93-3.54,0-1.02.63-2.96,1.76-4.92.4-.38-.26-1.4-.25-2.05-.15-1.87.29-2.75-.56-3.7-1.32-.92-.73-2.56-.73-3.28.07-.44.49-.79,1.01-1.1,1.55-.48.84-1.38,1.07-2.53.75-.33-.09-.77-.63-.65-.77,1-1.14-.06-1.93-.85-2.8-.38-.43-.4-1.01-.83-1.41-.98-.9-1.1-1.96-1.53-2.97-.1-.23-.9-.33-1.66-.59,1.91-.4.58-1.96,2.27-2.47-.38-1,1.27-1.38,1.51-2.1.36-1.13,1.36-.95,2.46-.85.2.02.4.02.75.04.08-.59.19-1.15.24-1.71.17-1.84.37-3.68.42-5.52.01-.38-.42-.9-.89-1.13-6.58-3.2-13.19-6.37-19.84-9.51-.52-.25-1.36-.26-2.06-.26-.54,0-1.1.14-1.6.3-1.56.5-2.55.4-3.97-.55-1.63-1.09-3.79-1.97-6.65-1-3.38,1.14-7.08,1.84-10.58,2.84-1.48.42-2.76,1.15-4.21,1.63-.86.29-1.88.51-2.83.51-1.75,0-3.49-.19-5.56-.33,1.85-1.86-.84-2.26-1.82-3.22-.66-.64-1.26-1.3-1.86-1.96-.31-.34-.51-.73-.83-1.07-3-3.12-6.2-6.17-8.95-9.39-1.27-1.49-3.11-1.96-5.41-2.53-1.9,6.52-3.73,12.95-4.15,19.73-4.39-1.31-8.39-2.5-12.38-3.69-.04.07-.09.14-.13.21-.27-.36-.55-.72-.98-1.29-.6.5-1.06.9-1.81,1.54-.58-1.12-1-2.13-1.61-3.08-.88-1.38-1.21-3.08-4.16-3.34-.54-.05-1.03-.37-1.22-.44.65-1.42,1.39-2.75,1.85-4.12.31-.93.18-1.9.96-2.8.33-.39,0-1.05-.09-1.58-.21-1.25-.26-2.42,1.71-3.15.49-.18.82-.59,1.17-.93.91-.87,1.87-1.67,3.41-2.1.44-.12.78-.5,1.06-.8.93-.99,1.55-2.12,3.69-2.32.63-.06,1.19-.68,1.69-1.1.68-.56,1.3-.93,2.55-.65,1.92.43,6.57-1.18,7.53-2.34.32-.39.24-.92.43-1.37.83-1.95,4.37-3.96,7.37-4.09,2.18-.1,3.42-1.04,4.69-2.03.6-.48,1.27-.92,2.09-1.3.28,1.34.98,2.18,2.99,2.38.7.07,1.36.47,1.97.79,1.04.53,2.07.51,3.26.24.91-.21,2.06-.04,2.85-.34,2.38-.91,4.78-.41,7.19-.25,1.81.12,3.76-.09,5.18,1,.18.14.65.2.96.17,1.95-.17,3.75-.04,5.51.67.66.26,1.78.12,2.65,0,1.61-.21,2.38.06,2.76,1.19.45-.07.91-.15,1.46-.24-.04.15-.01.28-.08.31-1.44.67-2.05,1.31-1.04,2.59.67.85-.83,1.49-1.93,1.93-1.64.65-1.7,1.1-.26,1.95.64.38,1.13.89,1.8,1.25,1.23.66,2.36,1.29,4.2,1.4,1.55.1,2.99,1.03,4.43,1.65.24.1.28.49.28.74-.01,1.07.7,1.75,2.26,2.01,2.18.36,4.03,1.08,5.46,2.27.76.63,1.75.72,2.72.3.97-.42,1.99-.87,1.72-1.85-.37-1.36-.01-1.91,1.86-2.41,1.81-.49,3.68-.79,5.48.08.2.1.56.15.61.28.62,1.45,2.55,1.36,4.17,1.63.15.02.4.02.43.07.77,1.6,3.04.83,4.53,1.29,1.87.57,3.91.9,5.79,1.46.98.29,1.68.23,2.54-.11,1.64-.65,3.39-1.18,5.36-.78.76.15,1.43.62,2.18.68,1.31.11,2.69.16,3.96-.02.74-.11,1.61-.62,1.93-1.11,1.06-1.63,1.79-3.36,2.87-4.98.74-1.12.97-2.16.6-3.37-.2-.65.39-1.41.61-2.12.06-.21.06-.42.11-.81-.59.18-.92.33-1.28.39-.48.08-1.11.25-1.45.12-1.04-.4-1.78-.15-2.39.37-.95.8-2.25.87-3.58.86-.35,0-.85-.14-1.03-.32-1.03-1.08-2.63-1.27-4.41-1.42-.33.72-.77,1.4-2.06,1.31-.58-.04-1.15-.29-1.67-.5-.64-.26-1.17-.67-1.84-.86-.93-.27-1.77-.57-2.37-1.13-.03-.03-.09-.05-.1-.07-.31-.93-.42-1.94-2.09-2.34.45.06.89.13,1.3.19v-2.62c-.5-.02-1-.03-1.49-.05.19-1.24,1.3-1.62,2.96-1.53,1.37.08,2.97.71,4.25-.34.24-.19.95-.12,1.6-.19-.55-.26-.98-.45-1.41-.65.03-.11.05-.22.08-.33,1.04.06,2.09.07,3.11.18.97.11,1.77.17,2.65-.34,2.27-1.32,5.1-1.47,7.9-1.23,1.07.09,2.02.74,3.06,1.08.71.23,1.48.44,2.25.51,1.46.15,2.95.23,4.43.27,2.26.05,4.34-.15,6.36-1.08.96-.44,2.9-.62,4.02.4.38.35.75.77.84,1.18.14.64.33,1.01,1.47,1.16.82.11,1.59.62,2.22,1.06,1.92,1.32,3.36,1.36,5.26.06.14-.1.25-.23.41-.3.58-.22,1.18-.42,1.77-.63.08.43.15.85.23,1.28.03.15-.02.4.1.44,1.34.49,2.43,1.12,3,2.11.03.05.16.13.23.12,2.21-.2,3.48,1.34,5.52,1.38,1.17.02,2.37-.15,3.51-.34,1.06-.17,2.06-.48,3.18-.75-.04-.22-.1-.51-.11-.53.72-.64,1.26-1.12,1.79-1.6.09-.08.17-.17.26-.25.91-.82,3.78-1.25,5.3-.95,1.07.21,2.29.09,3.37.28,1.22.22,2.36.63,3.54.94.81.21,1.64.41,2.46.61.06-.08.13-.16.19-.24.12.18.27.35.37.54.86,1.57,1.34,1.85,3.67,1.74.56-.03,1.08-.52,1.58-.83.12-.07.01-.29.12-.39.79-.71,1.78-1.34,2.37-2.11.53-.69-.65-1.83,1.27-2.22.22-.05.31-.39.38-.48,1.04-.1,1.92-.22,2.81-.26.8-.04,1.6,0,2.79,0,.43-.21,1.26-.61,2.31-1.11-.21-.47.24-.92,1.23-.97.12-.74.23-1.39.33-2.03.18-.06.36-.12.53-.18.59.52,1.22,1.03,1.77,1.57.52.51.95,1.07,1.42,1.6.6-.47,1.23-.93,1.79-1.42.47-.41.42-1.27,1.83-.8.2.07.82-.41,1.13-.38.39.11.78.29,1.18.31,1.31.07,2.79-.17,3.27,1.07.06.16.5.39.67.36,1.35-.24,1.78.52,2.49.98v.41Z"/>
    <path class="cls-2" d="m205.49,39.87c-.24-.05-.48-.1-.72-.14-.73-1.27-.86-2.52.27-3.84,2.04.38,1.08,1.72,1.73,2.5.21.25-.82.98-1.29,1.49Z"/>
  </g>
  <path class="cls-1" d="m60.09,42.75c-.14.49-.17,1.01-.44,1.47-.75,1.25-1.53,2.5-2.43,3.71-4.4,5.84.7,12.49,10.33,13.45,6.6.66,12.78-.39,18.67-2.23,3.12-.97,6-2.29,8.98-3.46.89-.35,1.21-.84,1.12-1.6-1.06-8.19-1.96-16.4-3.14-24.59-.27-1.86-1.48-3.66-2.17-5.5-.15-.39-.13-1.06.23-1.25,2.33-1.27,4.77-2.45,7.25-3.7,1.67,1.5,3.27,2.87,4.76,4.3.84.81,1.63.92,2.85.34,3.38-1.6,6.81-3.14,10.22-4.7.53-.24,1.05-.49,2.07-.96,0,2.7-.02,5.05,0,7.4.05,6.62.1,13.23.19,19.85.01.9.17,1.8.4,2.69.62,2.39,2.58,3.41,6.72,3.72,8.17.61,16.17-.13,24.03-1.49,4.79-.83,9.44-2.03,14.16-3.07.4-.09.77-.24,1.54-.49-2.82-.67-5.27-1.33-7.78-1.82-4.59-.89-9.21-1.76-13.86-2.49-3.6-.56-7.08.05-10.45.94-.47.12-1.04.08-1.56.12-.03-.36-.22-.75-.07-1.07.95-1.99,2.69-3.61,5.13-4.91,4.87-2.59,10.33-2.6,15.9-1.49,5.29,1.05,10.46,2.37,15.74,3.45,8.59,1.75,17.33,1.99,26.15.89.63-.08,1.28-.06,2.06.06-2.95,3.03-4.3,6.78-10.79,7.79-10.62,1.65-20.61,4.59-30.6,7.49-5.79,1.68-11.7,3.19-18.07,3.54-5.7.31-11.38.3-16.95-.75-5.05-.95-7.52-2.79-7.87-6.31-.46-4.68-.58-9.38-.81-14.07-.2-4.13-.35-8.26-.52-12.4,0-.18-.06-.36-.1-.66-3.3.41-6.51.78-9.71,1.23-.27.04-.56.6-.54.91.3,5.9.68,11.79.96,17.69.15,3.23.25,6.46.2,9.68-.04,2.71-1.59,5.15-4.39,7.01-9.07,6.02-19.9,8.89-32.71,7.51-11.79-1.27-14.83-7.52-14.26-13.27.46-4.63,3.54-8.55,7.48-12.23.39-.36.99-.63,1.49-.94.2.07.4.13.6.2Z"/>
  <g>
    <path class="cls-1" d="m21.08,26.64c4.11-2.8,8.34-5.42,12.67-7.88,4.33-2.46,8.75-4.78,13.29-6.89,4.53-2.12,9.15-4.08,13.9-5.77,4.72-1.75,9.58-3.2,14.56-4.26,4.96-1.1,10.08-1.71,15.23-1.81,1.28,0,2.59-.06,3.84,0l3.73.13,7.43.37c9.89.5,19.74,1.08,29.6,1.07.85,0,1.54.69,1.54,1.54,0,.85-.69,1.54-1.54,1.54-.01,0-.03,0-.04,0h-.06c-4.9-.14-9.81-.21-14.71-.14-4.9.05-9.8.47-14.69.9-2.44.23-4.88.51-7.31.79l-3.63.44c-1.2.14-2.34.38-3.51.56-4.64.79-9.24,1.87-13.82,3.15-9.17,2.47-18.31,5.48-27.33,8.98-9.04,3.45-18,7.28-27.01,11.16-1.13.49-2.43-.03-2.92-1.16-.43-.99-.07-2.13.79-2.72Z"/>
    <path class="cls-1" d="m202.3,12.47c2.35,1.06,4.68,2.19,6.99,3.45,2.3,1.29,4.56,2.71,6.77,4.38,2.2,1.68,4.38,3.58,6.32,6.18.97,1.28,1.83,2.85,2.46,4.66.64,1.82.86,4.05.52,6.21-.22,1.06-.5,2.14-.95,3.03-.4.98-.92,1.73-1.45,2.51-.53.77-1.1,1.35-1.66,2.01-.57.56-1.15,1.11-1.73,1.63-2.34,1.96-4.69,3.36-7,4.63-4.66,2.49-9.26,4.44-13.83,6.33-4.46,1.86-9.34,3.85-14.24,5.21-2.45.71-4.92,1.34-7.4,1.9-2.49.53-4.99.95-7.5,1.31-10.03,1.4-20.16,1.44-30.01-.07-.28-.04-.46-.3-.42-.57.04-.23.22-.4.45-.43,9.82-1.05,19.4-2.74,28.63-5.38,2.31-.65,4.58-1.39,6.84-2.17,2.26-.76,4.48-1.6,6.67-2.5,2.19-.9,4.34-1.88,6.47-2.89l6.51-3.24c4.37-2.2,8.73-4.32,12.65-6.66,1.96-1.14,3.8-2.38,5.2-3.62l.95-.9c.21-.29.53-.58.68-.84.15-.25.35-.5.39-.68.14-.2.09-.34.17-.47.01-.27.08-.55-.09-1.06-.17-.51-.46-1.14-.95-1.84-.93-1.4-2.39-2.89-4.04-4.25-3.33-2.75-7.35-5.15-11.49-7.31l-.05-.03c-2.33-1.21-3.23-4.09-2.02-6.42,1.17-2.24,3.89-3.16,6.17-2.14Z"/>
    <path class="cls-1" d="m23.61,27.8c1.58-5.85-.87-14.21-3.65-19.39-1.16,9.77-4.36,19.54-10.44,27.48,9.85-1.39,19.81,1.3,29,4.84-3.57-5.21-8.71-11.07-14.91-12.93Z"/>
  </g>
</svg>